<svg xmlns="http://www.w3.org/2000/svg" shape-rendering="geometricPrecision" text-rendering="geometricPrecision" image-rendering="optimizeQuality" fill-rule="evenodd" clip-rule="evenodd" viewBox="0 0 512 512">
    <!-- Green Background -->
    <circle fill="#01A437" cx="256" cy="256" r="256"/>
    <!-- White Reset Icon -->
    <path fill="#FFFFFF" d="M256 128c-70.69 0-128 57.31-128 128s57.31 128 128 128c42.56 0 80.49-20.69 104.3-52.84l-30.01-22.5c-17.63 23.38-44.66 37.34-74.29 37.34-52.93 0-96-43.07-96-96s43.07-96 96-96c31.09 0 59.09 14.78 77.16 37.94l-37.16 0v32h80l0-80h-32l0 30.36c-23.18-26.47-56.83-42.36-92-42.36z"/>
</svg>
